Coordinates
version=1
nRows=20
nColumns=38
inDegrees=no

Units are S.I. units (second, meters, Newtons, ...)
If the header above contains a line with 'inDegrees', this indicates whether rotational values are in degrees (yes) or radians (no).

endheader
time	pelvis_tilt	pelvis_list	pelvis_rotation	pelvis_tx	pelvis_ty	pelvis_tz	hip_flexion_r	hip_adduction_r	hip_rotation_r	knee_angle_r	ankle_angle_r	subtalar_angle_r	mtp_angle_r	hip_flexion_l	hip_adduction_l	hip_rotation_l	knee_angle_l	ankle_angle_l	subtalar_angle_l	mtp_angle_l	lumbar_extension	lumbar_bending	lumbar_rotation	arm_flex_r	arm_add_r	arm_rot_r	elbow_flex_r	pro_sup_r	wrist_flex_r	wrist_dev_r	arm_flex_l	arm_add_l	arm_rot_l	elbow_flex_l	pro_sup_l	wrist_flex_l	wrist_dev_l
45	0.345467	1.50393	1.43403	0.793597	-0.662589	1.05837	0.286359	-0.0762005	0.0173875	0.300305	-0.41571	0	0	0.0596036	-0.00941641	-0.197563	0.455857	-0.123695	0	0	-0.128404	-0.00531713	0.0449121	0.304852	-0.646292	0.390211	1.5989	1.5708	0	0	0.480071	-0.291339	0.637702	1.40988	1.5708	0	0
45.01	0.347086	1.50556	1.43062	0.792737	-0.664512	1.05856	0.287214	-0.0775726	0.0195934	0.301019	-0.418723	0	0	0.0593539	-0.00769958	-0.197724	0.454956	-0.125066	0	0	-0.126227	-0.00620129	0.0459846	0.298515	-0.648257	0.388363	1.59899	1.5708	0	0	0.476912	-0.291331	0.641441	1.41111	1.5708	0	0
45.02	0.351753	1.50751	1.42383	0.791949	-0.66641	1.05878	0.288024	-0.0786952	0.0215595	0.302293	-0.421326	0	0	0.0590706	-0.00637247	-0.198964	0.454887	-0.126527	0	0	-0.124927	-0.00628679	0.0478415	0.291564	-0.650798	0.385506	1.60067	1.5708	0	0	0.473894	-0.291157	0.645224	1.41275	1.5708	0	0
45.03	0.358679	1.50947	1.41474	0.791235	-0.668271	1.05907	0.288612	-0.0795312	0.0232796	0.302989	-0.42446	0	0	0.0589811	-0.00532087	-0.200653	0.455211	-0.12807	0	0	-0.123816	-0.00637512	0.049882	0.284372	-0.653285	0.382506	1.60246	1.5708	0	0	0.471276	-0.290725	0.649306	1.41379	1.5708	0	0
45.04	0.364416	1.51184	1.40707	0.790513	-0.670131	1.05944	0.288763	-0.0806049	0.0243947	0.303546	-0.42802	0	0	0.0583324	-0.00407061	-0.201908	0.455089	-0.129863	0	0	-0.123306	-0.00664782	0.051571	0.277525	-0.655558	0.379744	1.60414	1.5708	0	0	0.468725	-0.290634	0.653392	1.41504	1.5708	0	0
45.05	0.371678	1.51432	1.39804	0.789812	-0.672029	1.05985	0.289014	-0.081707	0.0252225	0.304322	-0.432034	0	0	0.0576399	-0.00284134	-0.202452	0.455139	-0.131705	0	0	-0.123156	-0.00685487	0.0530458	0.270896	-0.657409	0.37657	1.6055	1.5708	0	0	0.466374	-0.290445	0.657403	1.41605	1.5708	0	0
45.06	0.380407	1.51552	1.3868	0.78929	-0.673843	1.06012	0.290955	-0.0822137	0.0274682	0.305501	-0.436391	0	0	0.0582311	-0.00225227	-0.204061	0.455443	-0.133355	0	0	-0.121418	-0.00694051	0.0551443	0.263858	-0.65922	0.373858	1.60697	1.5708	0	0	0.462964	-0.290792	0.661026	1.41803	1.5708	0	0
45.07	0.391453	1.51594	1.37352	0.788794	-0.675672	1.06036	0.293886	-0.0825317	0.029423	0.307398	-0.44068	0	0	0.0598309	-0.00206944	-0.205972	0.456199	-0.134817	0	0	-0.119144	-0.00662997	0.0569889	0.256662	-0.661096	0.3712	1.60876	1.5708	0	0	0.459108	-0.291001	0.664152	1.42034	1.5708	0	0
45.08	0.407028	1.51652	1.35613	0.788317	-0.677521	1.06066	0.296636	-0.0826856	0.0308174	0.309727	-0.444697	0	0	0.0613664	-0.00206412	-0.207737	0.457101	-0.136065	0	0	-0.117392	-0.00605975	0.0585929	0.24952	-0.66304	0.368535	1.61072	1.5708	0	0	0.455485	-0.291286	0.667461	1.42272	1.5708	0	0
45.09	0.422034	1.51698	1.33889	0.78799	-0.679287	1.06099	0.29963	-0.0825715	0.032536	0.312422	-0.448262	0	0	0.0624806	-0.00209962	-0.210097	0.456806	-0.137815	0	0	-0.115718	-0.0055772	0.0606026	0.242288	-0.664875	0.366011	1.61288	1.5708	0	0	0.451483	-0.29205	0.670658	1.42565	1.5708	0	0
45.1	0.441318	1.51803	1.31762	0.787697	-0.681145	1.06139	0.302237	-0.0824589	0.0339785	0.315958	-0.45116	0	0	0.0629571	-0.00210821	-0.21262	0.456215	-0.140248	0	0	-0.114793	-0.00523094	0.0625431	0.235234	-0.666569	0.363379	1.6148	1.5708	0	0	0.448204	-0.292617	0.674285	1.4279	1.5708	0	0
45.11	0.467941	1.51892	1.2891	0.787437	-0.683139	1.06181	0.305589	-0.0819086	0.0353127	0.321199	-0.453005	0	0	0.0638986	-0.0023008	-0.214691	0.456101	-0.142334	0	0	-0.11459	-0.00444321	0.064193	0.228822	-0.668406	0.360925	1.61707	1.5708	0	0	0.444903	-0.293095	0.677329	1.43051	1.5708	0	0
45.12	0.483496	1.51852	1.27103	0.787358	-0.685034	1.06199	0.311178	-0.0811101	0.0380483	0.328577	-0.453355	0	0	0.0660538	-0.002689	-0.217724	0.456179	-0.143986	0	0	-0.112393	-0.003964	0.0666986	0.221077	-0.670087	0.357968	1.61979	1.5708	0	0	0.440993	-0.294422	0.680824	1.43394	1.5708	0	0
45.13	0.500176	1.51837	1.25201	0.787359	-0.686901	1.06219	0.316599	-0.0800395	0.0413926	0.336859	-0.452155	0	0	0.0674852	-0.00305495	-0.219752	0.45572	-0.145038	0	0	-0.110472	-0.00345948	0.0690584	0.213124	-0.671591	0.354887	1.6228	1.5708	0	0	0.436949	-0.296052	0.684099	1.43766	1.5708	0	0
45.14	0.887866	1.53225	0.829495	0.789073	-0.691722	1.06473	0.31261	-0.0612296	0.090733	0.355097	-0.454089	0	0	0.043737	-0.0121195	-0.262101	0.451717	-0.145279	0	0	-0.144585	0.00995057	0.100304	0.230348	-0.690596	0.361391	1.63289	1.5708	0	0	0.440379	-0.286046	0.675778	1.44213	1.5708	0	0
45.15	0.958979	1.53622	0.755948	0.789022	-0.693623	1.06551	0.313312	-0.0619475	0.0923269	0.364232	-0.45355	0	0	0.0388822	-0.00979476	-0.26408	0.447581	-0.147647	0	0	-0.149527	0.00844695	0.10212	0.224272	-0.69227	0.357939	1.63735	1.5708	0	0	0.43691	-0.287555	0.676927	1.44761	1.5708	0	0
45.16	0.538126	1.52137	1.20853	0.787368	-0.692653	1.06308	0.333336	-0.0788072	0.0476391	0.375872	-0.440571	0	0	0.0674768	-0.000949498	-0.221818	0.451324	-0.148839	0	0	-0.111038	-0.00381241	0.0741788	0.190929	-0.675704	0.344012	1.63477	1.5708	0	0	0.424988	-0.301065	0.690168	1.45198	1.5708	0	0
45.17	0.538086	1.52172	1.20685	0.787516	-0.694513	1.06315	0.340653	-0.0783946	0.0507835	0.394684	-0.433489	0	0	0.0681087	-7.93544e-05	-0.222828	0.449631	-0.149292	0	0	-0.109701	-0.00434052	0.0754747	0.18395	-0.676718	0.341624	1.63831	1.5708	0	0	0.420565	-0.303199	0.691747	1.4566	1.5708	0	0
45.18	0.539049	1.52227	1.20403	0.787819	-0.696263	1.06318	0.347844	-0.0775166	0.0547003	0.417373	-0.420621	0	0	0.0684152	0.000492679	-0.224687	0.448055	-0.149798	0	0	-0.108296	-0.00510924	0.0771084	0.176551	-0.677348	0.338935	1.64199	1.5708	0	0	0.416232	-0.305524	0.69348	1.46127	1.5708	0	0
45.19	0.538646	1.52285	1.20275	0.788186	-0.697943	1.06315	0.354703	-0.0764402	0.059061	0.443094	-0.402832	0	0	0.0685127	0.001027	-0.226832	0.446115	-0.150433	0	0	-0.106598	-0.00595295	0.0787075	0.169025	-0.677966	0.336429	1.64572	1.5708	0	0	0.411763	-0.308164	0.695321	1.46625	1.5708	0	0
